<?xml version="1.0" encoding="UTF-8" standalone="no"?>
<svg
   xmlns:dc="http://purl.org/dc/elements/1.1/"
   xmlns:cc="http://creativecommons.org/ns#"
   xmlns:rdf="http://www.w3.org/1999/02/22-rdf-syntax-ns#"
   xmlns:svg="http://www.w3.org/2000/svg"
   xmlns="http://www.w3.org/2000/svg"
   xmlns:sodipodi="http://sodipodi.sourceforge.net/DTD/sodipodi-0.dtd"
   xmlns:inkscape="http://www.inkscape.org/namespaces/inkscape"
   viewBox="0 -256 1850 1850"
   id="svg3037"
   version="1.1"
   inkscape:version="0.48.3.1 r9886"
   width="100%"
   height="100%"
   sodipodi:docname="flag_font_awesome.svg">
  <metadata
     id="metadata3047">
    <rdf:RDF>
      <cc:Work
         rdf:about="">
        <dc:format>image/svg+xml</dc:format>
        <dc:type
           rdf:resource="http://purl.org/dc/dcmitype/StillImage" />
      </cc:Work>
    </rdf:RDF>
  </metadata>
  <defs
     id="defs3045" />
  <sodipodi:namedview
     pagecolor="#ffffff"
     bordercolor="#666666"
     borderopacity="1"
     objecttolerance="10"
     gridtolerance="10"
     guidetolerance="10"
     inkscape:pageopacity="0"
     inkscape:pageshadow="2"
     inkscape:window-width="640"
     inkscape:window-height="480"
     id="namedview3043"
     showgrid="false"
     inkscape:zoom="0.13169643"
     inkscape:cx="896"
     inkscape:cy="896"
     inkscape:window-x="0"
     inkscape:window-y="25"
     inkscape:window-maximized="0"
     inkscape:current-layer="svg3037" />
  <g
     transform="matrix(1,0,0,-1,-7.5932203,1328.2373)"
     id="g3039">
    <path
       d="m 320,1280 q 0,-72 -64,-110 V -96 q 0,-13 -9.5,-22.5 Q 237,-128 224,-128 h -64 q -13,0 -22.5,9.5 -9.5,9.5 -9.5,22.5 v 1266 q -64,38 -64,110 0,53 37.5,90.5 37.5,37.5 90.5,37.5 53,0 90.5,-37.5 Q 320,1333 320,1280 z m 1472,-64 V 453 q 0,-25 -12.5,-38.5 Q 1767,401 1740,387 1525,271 1371,271 q -61,0 -123.5,22 -62.5,22 -108.5,48 -46,26 -115.5,48 -69.5,22 -142.5,22 -192,0 -464,-146 -17,-9 -33,-9 -26,0 -45,19 -19,19 -19,45 v 742 q 0,32 31,55 21,14 79,43 236,120 421,120 107,0 200,-29 93,-29 219,-88 38,-19 88,-19 54,0 117.5,21 63.5,21 110,47 46.5,26 88,47 41.5,21 54.5,21 26,0 45,-19 19,-19 19,-45 z"
       id="path3041"
       inkscape:connector-curvature="0"
       style="fill:currentColor" />
  </g>
</svg>
